<?xml version="1.0" standalone="no"?>
<!DOCTYPE svg PUBLIC "-//W3C//DTD SVG 20010904//EN"
 "http://www.w3.org/TR/2001/REC-SVG-20010904/DTD/svg10.dtd">
<svg version="1.0" xmlns="http://www.w3.org/2000/svg"
 width="839.000000pt" height="324.000000pt" viewBox="0 0 839.000000 324.000000"
 preserveAspectRatio="xMidYMid meet">

<g transform="translate(0.000000,324.000000) scale(0.100000,-0.100000)"
fill="#000000" stroke="none">
<path d="M4753 2864 c-17 -12 -16 -16 16 -79 18 -36 30 -69 26 -73 -6 -6 -87
-6 -194 1 -40 2 -57 -18 -47 -56 9 -38 59 -50 175 -45 l97 5 14 -46 c15 -46
49 -75 76 -64 16 6 38 78 31 104 -3 10 2 20 10 23 23 9 143 7 143 -3 0 -4 -10
-20 -21 -35 -12 -15 -19 -29 -16 -32 9 -10 91 17 129 42 30 19 51 24 106 24
77 0 112 17 112 56 0 29 -31 44 -89 44 -47 0 -67 16 -75 60 -8 45 -52 90 -87
90 -39 0 -42 -11 -23 -75 9 -31 14 -58 12 -61 -2 -2 -50 -7 -105 -10 -98 -7
-101 -6 -119 17 -35 45 -114 117 -133 122 -11 3 -28 -1 -38 -9z"/>
<path d="M6493 2833 c-30 -12 0 -54 62 -87 17 -8 39 -22 49 -31 19 -15 19 -16
-9 -45 -34 -35 -31 -36 26 -10 24 11 59 20 77 20 37 0 72 30 72 61 0 34 -50
75 -108 88 -54 11 -146 14 -169 4z"/>
<path d="M3308 2819 c-23 -13 -23 -46 0 -53 10 -4 33 -21 51 -40 l33 -34 -54
-11 c-77 -17 -172 -30 -260 -37 -55 -4 -78 -10 -82 -21 -14 -35 37 -75 131
-103 l42 -13 -43 -61 c-24 -34 -65 -101 -92 -151 -26 -49 -60 -108 -74 -130
-15 -22 -50 -80 -78 -130 -58 -104 -100 -149 -140 -150 -25 0 -27 -3 -26 -41
1 -45 35 -101 71 -115 27 -10 76 5 120 38 64 47 148 193 208 364 l27 77 61 6
c56 6 164 28 210 42 13 4 17 0 17 -20 0 -27 -1 -27 -125 -57 -64 -15 -85 -34
-85 -74 0 -51 18 -59 121 -52 l90 7 -3 -53 c-3 -52 -3 -52 -46 -66 l-43 -13
-35 40 c-55 64 -151 101 -182 70 -19 -19 -15 -92 7 -119 10 -13 21 -37 25 -54
5 -26 2 -33 -27 -52 -18 -13 -41 -23 -50 -23 -21 0 -29 -31 -25 -101 3 -51 5
-54 31 -57 16 -2 49 8 82 26 64 35 58 39 101 -74 33 -88 50 -111 97 -136 56
-28 125 -28 165 0 42 31 57 80 57 195 0 53 1 97 3 97 9 0 226 -109 272 -137
43 -26 66 -33 106 -33 67 0 87 19 74 74 -16 71 -97 130 -222 162 -34 9 -84 26
-111 38 l-49 21 48 43 c27 23 57 49 67 57 25 22 21 50 -14 89 -29 34 -30 36
-14 60 19 28 10 54 -26 80 -20 13 -20 15 -4 39 16 25 18 25 111 20 82 -5 97
-4 114 12 45 41 8 74 -91 83 -71 7 -73 8 -94 45 -35 63 -75 82 -175 83 l-85 1
-3 35 c-4 43 8 48 125 48 88 0 107 9 119 56 12 46 -37 77 -141 89 -48 6 -70
15 -110 45 -103 78 -139 92 -177 69z m117 -324 l0 -40 -55 -8 c-30 -4 -66 -6
-80 -5 -25 3 -25 3 13 45 37 41 61 52 102 49 16 -1 20 -8 20 -41z m-62 -130
c55 0 62 -2 65 -21 3 -19 -5 -23 -69 -38 -79 -18 -169 -21 -169 -6 0 12 20 59
38 87 l14 22 29 -21 c23 -17 44 -22 92 -23z m270 8 c15 -9 -4 -21 -46 -28 -23
-3 -50 -9 -59 -11 -28 -8 -23 35 5 46 20 9 81 5 100 -7z m-33 -103 c0 -13 -61
-51 -72 -44 -13 8 -9 42 5 47 22 10 67 7 67 -3z m70 -194 c0 -20 -28 -46 -67
-62 -43 -19 -43 -19 -43 21 0 32 3 35 38 40 20 4 42 8 47 10 20 7 25 5 25 -9z
m-10 -80 c0 -14 -64 -76 -79 -76 -5 0 -11 9 -14 20 -4 15 4 27 31 45 41 28 62
32 62 11z m-243 -256 c-12 -92 -13 -95 -39 -98 -19 -2 -37 7 -69 38 l-43 41
34 27 c39 31 124 90 127 88 1 0 -4 -44 -10 -96z"/>
<path d="M1744 2755 c-3 -8 -1 -38 5 -66 6 -29 10 -54 8 -56 -3 -2 -24 -7 -47
-11 -55 -9 -60 -24 -14 -41 23 -8 33 -16 26 -23 -18 -18 -142 -58 -142 -46 0
6 5 40 12 75 11 60 10 65 -9 84 -44 44 -93 -21 -124 -163 -11 -51 -25 -110
-31 -130 -14 -47 3 -93 44 -118 26 -15 27 -18 11 -25 -34 -13 -178 -17 -237
-6 -153 29 -155 -97 -2 -129 30 -6 113 -10 185 -8 72 2 131 2 131 1 0 -2 -14
-26 -31 -54 -19 -31 -32 -65 -33 -87 l-1 -37 113 -14 c77 -10 112 -18 112 -27
0 -7 -22 -36 -49 -63 -83 -86 -175 -112 -312 -91 -93 15 -110 7 -79 -33 75
-95 263 -156 377 -122 68 20 149 94 192 175 18 34 39 64 47 67 16 6 174 -80
368 -200 93 -58 140 -81 172 -85 67 -7 92 3 103 43 13 49 -3 97 -47 144 -65
67 -339 216 -447 242 -27 6 -61 18 -74 26 -20 13 -23 21 -18 59 2 25 13 54 23
66 18 19 26 20 134 14 63 -3 152 -9 197 -13 78 -6 82 -5 107 20 34 34 33 70 0
96 -40 31 -87 40 -249 49 -91 4 -150 11 -152 18 -2 6 24 19 58 29 122 37 179
110 165 209 -7 42 -10 46 -54 63 -37 14 -75 18 -174 18 -143 0 -128 -8 -157
85 -6 19 -21 44 -33 57 -24 26 -66 31 -74 8z m26 -295 c0 -5 -7 -10 -16 -10
-8 0 -12 5 -9 10 3 6 10 10 16 10 5 0 9 -4 9 -10z m319 -4 c9 -6 6 -15 -11
-33 -33 -36 -56 -47 -113 -53 -47 -5 -51 -7 -72 -49 -21 -42 -38 -60 -55 -61
-28 0 23 142 64 184 28 27 32 28 102 24 40 -3 78 -8 85 -12z m-347 -63 c-11
-16 -31 -52 -46 -80 -25 -50 -29 -53 -64 -53 -20 0 -48 -3 -61 -7 -21 -5 -23
-3 -16 18 11 36 43 67 115 110 79 47 99 50 72 12z m68 -297 c0 -8 -4 -26 -9
-39 -8 -20 -15 -23 -40 -19 -34 5 -36 9 -19 47 8 18 19 25 40 25 18 0 28 -5
28 -14z"/>
<path d="M6715 2644 c-16 -3 -81 -14 -143 -25 -84 -15 -132 -19 -186 -14 -60
6 -74 4 -85 -9 -12 -14 -11 -19 3 -34 37 -41 19 -99 -144 -457 -40 -88 -77
-166 -83 -172 -14 -19 -27 -6 -27 28 0 16 -4 29 -10 29 -5 0 -10 -19 -10 -42
0 -24 -7 -70 -15 -103 -8 -33 -14 -77 -15 -97 0 -32 5 -40 30 -53 50 -26 104
-20 145 17 50 44 72 91 110 242 30 121 77 259 125 372 18 41 21 43 45 34 15
-6 44 -10 65 -10 22 0 40 -5 43 -13 3 -7 32 -27 65 -45 64 -34 82 -57 54 -70
-56 -28 -178 -54 -229 -49 -68 7 -83 2 -83 -30 0 -79 70 -98 214 -57 27 8 51
12 53 10 2 -2 -29 -52 -68 -112 -68 -101 -176 -221 -276 -305 -26 -22 -43 -45
-43 -58 0 -25 48 -58 97 -67 95 -18 161 33 235 180 64 128 101 176 135 176 15
0 65 7 113 17 48 9 94 13 103 10 23 -9 23 -110 1 -188 -41 -146 -146 -150
-252 -8 -55 74 -66 61 -36 -42 50 -167 144 -260 265 -261 87 0 156 57 195 162
12 34 17 81 18 190 1 134 -1 148 -22 181 -12 21 -34 44 -47 53 -40 26 -120 37
-188 26 -34 -5 -62 -8 -64 -7 -1 2 6 25 16 53 17 44 22 49 52 52 32 2 33 1 15
-13 -29 -22 -14 -27 32 -11 22 8 73 18 113 22 57 5 78 12 96 30 19 19 22 28
13 43 -16 30 -71 43 -173 40 l-92 -3 -59 57 -58 56 23 29 c13 16 39 38 57 48
60 33 100 116 71 150 -29 36 -119 58 -194 48z m50 -108 c19 -14 19 -15 1 -35
-11 -12 -37 -23 -65 -26 -25 -4 -83 -15 -129 -26 -46 -10 -97 -19 -113 -19
-26 0 -29 3 -25 20 3 11 8 29 11 39 4 15 21 23 63 32 146 30 230 35 257 15z"/>
<path d="M4990 2592 c0 -37 -21 -64 -76 -101 -42 -29 -47 -30 -67 -16 -49 35
-77 6 -34 -36 18 -18 18 -21 4 -16 -14 5 -21 0 -29 -23 -6 -19 -19 -32 -34
-36 -34 -9 -36 -3 -19 46 19 54 19 80 -1 108 -19 28 -44 29 -44 2 0 -32 -25
-83 -59 -122 -53 -61 -33 -134 33 -121 30 6 30 5 -21 -41 -59 -53 -65 -75 -29
-111 l24 -24 -34 -7 c-19 -3 -69 -2 -112 3 -127 16 -163 -8 -98 -65 47 -41
101 -55 213 -56 63 -1 93 -5 93 -12 0 -14 -138 -164 -151 -164 -5 0 -9 7 -9
15 0 21 -27 19 -39 -4 -16 -29 -24 -96 -17 -135 9 -45 56 -96 89 -96 45 0 97
57 220 244 15 23 33 71 41 107 l13 64 79 7 c43 3 83 3 87 -2 19 -17 2 -55 -28
-64 -16 -5 -37 -11 -45 -13 -12 -4 -10 -8 9 -21 62 -44 71 -59 71 -116 0 -30
-5 -66 -11 -80 -25 -54 -101 -50 -178 10 -70 54 -77 45 -32 -44 90 -177 224
-282 307 -239 59 31 78 65 105 194 11 54 22 99 23 101 2 1 66 -25 142 -59 137
-61 213 -79 268 -65 57 14 37 98 -38 162 -58 50 -80 60 -240 109 -77 24 -149
46 -158 50 -19 8 -43 69 -33 85 8 14 126 13 260 -2 154 -17 210 -15 235 7 26
23 25 46 -2 80 -44 56 -82 65 -302 65 l-198 0 6 23 c3 12 6 24 6 27 0 3 43 6
96 8 87 3 99 1 119 -18 57 -54 89 20 39 91 -15 21 -29 39 -33 39 -3 0 -14 7
-25 15 -18 13 -18 15 4 45 17 24 20 38 15 70 -9 52 -17 56 -44 20 -15 -21 -30
-30 -51 -30 -36 0 -47 16 -21 29 50 27 65 68 38 105 -12 17 -18 14 -70 -38
-30 -31 -63 -56 -72 -56 -9 0 -28 9 -42 20 -14 11 -38 20 -53 20 -23 0 -29 5
-34 32 -12 59 -56 83 -56 30z m104 -164 c29 -41 21 -48 -53 -48 -39 0 -72 4
-75 9 -6 9 30 45 54 54 32 12 60 6 74 -15z m-164 -8 c0 -5 -4 -10 -10 -10 -5
0 -10 5 -10 10 0 6 5 10 10 10 6 0 10 -4 10 -10z m-34 -157 c4 -26 15 -63 26
-82 10 -18 17 -35 15 -37 -6 -6 -237 -44 -265 -44 -17 1 2 10 48 25 41 13 85
30 98 36 17 10 25 10 34 1 19 -19 48 -14 48 7 0 38 -21 78 -67 126 -10 10 -9
22 5 54 l17 41 18 -39 c9 -22 20 -61 23 -88z m384 120 c0 -10 -62 -73 -72 -73
-4 0 -8 15 -8 34 0 28 4 35 23 39 38 7 57 7 57 0z m80 -89 c0 -14 -40 -23 -65
-14 -18 6 -17 9 9 35 27 27 29 28 42 10 8 -10 14 -24 14 -31z m-304 20 c30 -4
54 -10 54 -13 0 -3 -3 -16 -6 -28 -6 -20 -11 -22 -53 -17 -28 4 -53 14 -63 26
-23 26 -24 52 -2 44 9 -3 40 -9 70 -12z m-250 -92 c-9 -8 -66 -19 -66 -13 0 5
10 21 22 36 l21 27 13 -23 c7 -13 11 -25 10 -27z"/>
<path d="M2450 1114 c-137 -37 -211 -137 -213 -289 -1 -78 24 -149 70 -197 60
-63 210 -94 332 -68 57 12 60 14 69 51 5 22 9 39 8 39 0 0 -28 -14 -60 -30
-105 -53 -202 -29 -257 64 -28 48 -37 169 -19 246 21 88 91 150 169 150 50 0
79 -11 115 -45 33 -30 43 -25 48 25 3 34 1 36 -47 52 -61 21 -142 22 -215 2z"/>
<path d="M7035 1117 c-72 -19 -107 -40 -153 -92 -42 -48 -72 -131 -72 -201 0
-123 74 -226 186 -257 114 -32 267 -16 285 30 19 50 12 53 -48 21 -50 -26 -65
-29 -112 -25 -71 8 -122 42 -152 104 -19 39 -24 64 -24 133 1 145 60 236 160
248 59 6 88 -3 130 -39 20 -18 37 -30 39 -28 2 2 9 21 14 42 11 38 11 39 -26
54 -49 21 -165 26 -227 10z"/>
<path d="M870 840 l0 -280 60 0 60 0 0 119 0 118 65 6 c126 12 185 66 185 170
0 51 -4 61 -32 92 -39 42 -97 55 -245 55 l-93 0 0 -280z m219 208 c28 -29 36
-81 22 -129 -13 -42 -38 -63 -88 -74 l-33 -7 0 116 0 116 40 0 c27 0 45 -6 59
-22z"/>
<path d="M1327 1113 c-4 -3 -7 -129 -7 -280 l0 -273 155 0 155 0 0 31 0 31
-95 -7 -95 -7 0 106 0 106 95 0 95 0 0 33 0 32 -95 -3 -95 -3 0 92 0 91 95 -7
95 -7 0 36 0 36 -148 0 c-82 0 -152 -3 -155 -7z"/>
<path d="M1812 878 c-55 -134 -108 -260 -116 -280 l-16 -38 38 0 37 0 29 80
28 80 98 0 98 0 27 -80 27 -80 68 0 68 0 -52 133 c-177 450 -166 427 -201 427
l-32 0 -101 -242z m137 -7 c17 -47 31 -88 31 -93 0 -4 -31 -8 -70 -8 -38 0
-70 4 -70 8 0 5 12 37 26 73 15 35 30 75 35 88 5 13 11 22 13 20 3 -2 18 -42
35 -88z"/>
<path d="M2820 840 l0 -280 155 0 155 0 0 31 0 31 -95 -7 -95 -7 0 106 0 106
90 0 90 0 0 30 0 30 -90 0 -90 0 0 91 0 91 95 -7 95 -7 0 36 0 36 -155 0 -155
0 0 -280z"/>
<path d="M3450 840 l0 -280 60 0 60 0 0 119 0 118 60 6 c132 12 194 72 187
180 -7 107 -66 137 -274 137 l-93 0 0 -280z m219 208 c28 -29 36 -81 22 -129
-13 -42 -38 -63 -88 -74 l-33 -7 0 116 0 116 40 0 c27 0 45 -6 59 -22z"/>
<path d="M4620 873 c-57 -137 -110 -263 -117 -280 l-13 -33 39 0 c33 0 40 4
45 25 4 14 16 50 27 80 l20 55 98 0 98 0 27 -80 28 -80 68 0 68 0 -85 213
c-46 116 -96 242 -111 280 -25 63 -29 67 -58 67 l-31 0 -103 -247z m169 -90
c1 -9 -19 -13 -69 -13 -38 0 -70 4 -70 10 0 9 22 67 55 145 l18 40 33 -85 c18
-47 33 -91 33 -97z"/>
<path d="M5080 841 l0 -281 60 0 60 0 0 133 0 132 78 -132 77 -132 73 -1 c56
0 71 3 66 13 -4 6 -20 31 -35 53 -16 23 -50 79 -78 124 l-50 83 42 21 c52 26
79 71 79 131 0 100 -44 125 -233 132 l-139 6 0 -282z m225 204 c19 -18 25 -35
25 -70 0 -80 -38 -125 -106 -125 -24 0 -24 0 -24 110 l0 110 40 0 c30 0 47 -7
65 -25z"/>
<path d="M5663 1112 c-38 -4 -32 18 -73 -282 -17 -124 -34 -235 -37 -247 -5
-21 -1 -23 30 -23 l35 0 7 78 c3 42 12 124 19 182 l13 105 88 -182 c101 -209
110 -217 149 -130 12 28 52 112 87 186 l64 135 7 -40 c3 -21 12 -105 19 -186
l13 -148 66 0 66 0 -17 108 c-9 59 -25 182 -35 275 l-19 167 -35 0 -35 -1 -95
-190 -95 -190 -95 193 -96 193 -31 -3z"/>
<path d="M6487 1113 c-4 -6 -203 -486 -224 -540 -4 -9 7 -13 33 -13 l39 0 26
78 25 77 100 0 99 0 25 -77 25 -77 68 -1 c53 0 68 3 65 14 -2 7 -50 133 -108
279 l-105 266 -32 1 c-17 0 -34 -3 -36 -7z m68 -324 c6 -18 1 -19 -69 -19 -42
0 -76 1 -76 3 0 5 70 169 77 180 5 8 42 -80 68 -164z"/>
<path d="M7418 1112 c-38 -2 -68 -6 -68 -9 0 -8 95 -184 136 -254 33 -56 34
-59 34 -173 l0 -116 60 0 60 0 0 128 0 127 61 110 c34 61 72 129 86 153 l26
43 -39 -3 -39 -3 -57 -117 c-32 -65 -62 -118 -68 -118 -5 0 -36 53 -67 118
l-58 117 -67 -3z"/>
<path d="M3920 835 l0 -275 55 0 54 0 3 133 3 132 128 3 127 3 0 -136 0 -135
60 0 60 0 0 275 0 275 -60 0 -60 0 0 -110 0 -111 -127 3 -128 3 -3 108 -3 107
-54 0 -55 0 0 -275z"/>
</g>
</svg>
